# xmcd
# 
# Track frame offsets:
#     150
#     14929
#     28728
#     41259
#     53799
#     65476
#     81529
#     93605
#     102212
#     117302
#     128917
#     146587
#     165197
#     179641
#     196955
#     212105
#     227883
#     244020
#     263606
#     282749
# 
# Disc length: 3993
# 
# Revision: 0
# Processed by: cddbd v1.5.2PL0 Copyright (c) Steve Scherf et al.
# Submitted via: fre:ac v1.0.17
# 
DISCID=2c0f9714
DTITLE=Various Musicians - Brazilian Music 100 [Disc 1]
DYEAR=0
DGENRE=Country
TTITLE0=Tahi
TTITLE1=Palpite Infeliz
TTITLE2=Falsa Bahiana
TTITLE3=Carinhoso
TTITLE4=Marina
TTITLE5=Pranto De Poeta
TTITLE6=A Flor E O Espinho-Quando Eu Me Chamar Saudade
TTITLE7=As Rosas Nao Falam
TTITLE8=Sou Mais O Samba
TTITLE9=Canta, Canta, Minha Gente
TTITLE10=Rei Senhor, Rei Zumbi, Rei Nago
TTITLE11=Imagens Poeticas De Jorge De Lima
TTITLE12=Vou Festejar
TTITLE13=Um Ser De Luz
TTITLE14=O Bebado E A Equilibrista
TTITLE15=E Preciso Cantar
TTITLE16=Tempo De Crianca
TTITLE17=Domingo
TTITLE18=Deixa Acontecer
TTITLE19=Ela Sambou, Eu Dancei
EXTD=
EXTT0=
EXTT1=
EXTT2=
EXTT3=
EXTT4=
EXTT5=
EXTT6=
EXTT7=
EXTT8=
EXTT9=
EXTT10=
EXTT11=
EXTT12=
EXTT13=
EXTT14=
EXTT15=
EXTT16=
EXTT17=
EXTT18=
EXTT19=
PLAYORDER=
